<svg width="150" height="29" viewBox="0 0 150 29" fill="none" xmlns="http://www.w3.org/2000/svg">
<path d="M130.275 0.00619984C131.214 0.2582 131.687 1.0421 132.241 1.7326C134.437 4.4825 136.624 7.2354 138.817 9.9884C138.876 10.063 138.947 10.1315 139.035 10.2248C139.834 9.2169 140.621 8.2246 141.408 7.2354C143.054 5.1606 144.693 3.0827 146.345 1.011C146.917 0.2924 147.819 0.0466997 148.659 0.3453C149.505 0.647 149.997 1.3843 149.997 2.3797C150 7.1825 150 11.9823 149.997 16.7852C149.997 17.5815 150.009 18.3778 149.987 19.1742C149.959 20.2038 149.175 21.0126 148.133 21.1246C147.191 21.2272 146.245 20.574 145.999 19.6252C145.934 19.3764 145.922 19.1088 145.922 18.8507C145.915 15.4662 145.919 12.085 145.919 8.7005V8.2713C145.891 8.2619 145.863 8.2526 145.831 8.2464C145.402 8.7845 144.97 9.3196 144.544 9.8608C143.262 11.4784 141.987 13.1021 140.696 14.7104C139.756 15.88 138.279 15.8644 137.349 14.6948C135.607 12.508 133.858 10.3212 132.113 8.1375C132.07 8.0846 132.023 8.0349 131.92 7.9104V19.0653C131.92 20.1323 131.208 20.9472 130.135 21.1183C129.196 21.2676 128.219 20.63 127.939 19.6657C127.874 19.4417 127.858 19.1991 127.858 18.9658C127.849 13.3603 127.849 7.7642 127.849 2.165C127.849 1.067 128.377 0.3764 129.438 0.0653C129.472 0.056 129.497 0.0248998 129.528 0.00619984H130.275ZM69.8035 0.00619984C70.4069 0.1306 71.0228 0.2084 71.6076 0.3888C75.312 1.5398 77.863 3.8572 78.865 7.6895C79.092 8.5543 79.21 9.4471 79.067 10.3461C78.877 11.525 77.798 12.6542 76.358 12.6448C71.9156 12.6137 67.4736 12.6324 63.0315 12.6324H62.5463C62.7858 13.802 63.2742 14.8036 64.0892 15.6249C66.1266 17.6779 68.5996 18.1227 71.3059 17.4135C72.2547 17.1646 73.1505 16.698 74.0495 16.2874C74.7681 15.9608 75.468 15.8146 76.18 16.2439C77.421 16.9904 77.362 18.7635 76.065 19.5474C74.6157 20.4246 73.0385 20.9783 71.3681 21.2458C69.1036 21.6129 66.8732 21.4791 64.7517 20.5553C61.1776 19.0031 59.081 16.275 58.4402 12.4364C57.6065 7.4282 60.3968 2.5258 65.1406 0.7341C66.0116 0.4044 66.9634 0.2862 67.878 0.0684004C67.9464 0.0529004 68.0148 0.0249004 68.0833 0.0031004C68.6587 0.0062004 69.2311 0.00619984 69.8035 0.00619984ZM75.16 8.8654C74.9361 5.9725 71.449 3.3688 68.245 3.6675C65.4672 3.9287 62.3627 6.7812 62.6085 8.8654H75.16ZM32.1769 0.00619984C32.6964 0.1058 33.2252 0.1711 33.7354 0.3142C37.3064 1.3158 39.8665 3.4466 41.0797 7.0208C41.4529 8.122 41.6427 9.2667 41.4436 10.4332C41.2476 11.5624 40.1713 12.6573 38.7404 12.6449C34.2984 12.6107 29.8595 12.6324 25.4174 12.6324H24.9446C25.1873 13.7865 25.6663 14.7881 26.4657 15.6031C28.5063 17.6748 30.9855 18.129 33.7074 17.4166C34.6437 17.1709 35.5271 16.7074 36.4168 16.3092C36.9269 16.0822 37.434 15.8955 37.9939 16.0168C38.7871 16.1848 39.3066 16.7478 39.4559 17.5691C39.5865 18.2814 39.2195 19.1244 38.4978 19.5226C37.7295 19.9456 36.9363 20.35 36.1119 20.6393C33.3372 21.6098 30.5127 21.7996 27.7193 20.7731C23.7719 19.3235 21.4576 16.4617 20.8292 12.3089C20.1355 7.7269 22.3379 3.4155 26.4035 1.2443C27.6105 0.6004 28.8983 0.2115 30.2639 0.0777998C30.3323 0.0714998 30.3976 0.0341997 30.4661 0.0123997C31.0322 0.00619967 31.6046 0.00619984 32.1769 0.00619984ZM37.5304 8.8623C37.5833 6.5324 34.3202 3.6893 31.4304 3.6395C27.8562 3.5804 25.2588 6.3458 24.9695 8.8623H37.5304ZM115.642 0.00619984C116.15 0.1058 116.663 0.1742 117.157 0.3142C120.903 1.3749 123.528 3.6364 124.623 7.4501C124.85 8.2371 124.897 9.0894 124.922 9.9168C124.965 11.3353 123.702 12.6635 122.169 12.6511C117.739 12.6107 113.313 12.6355 108.883 12.6355H108.401C108.413 12.7569 108.413 12.8533 108.438 12.9404C109.147 15.4507 110.833 16.95 113.328 17.538C115.518 18.0543 117.556 17.5068 119.509 16.5052C119.935 16.2875 120.389 16.0635 120.853 16.0013C121.777 15.88 122.548 16.4243 122.813 17.2611C123.083 18.1134 122.722 19.0528 121.91 19.5412C120.448 20.4215 118.862 20.9783 117.179 21.249C114.793 21.6347 112.46 21.4543 110.258 20.4184C106.902 18.8382 104.889 16.191 104.295 12.5298C103.701 8.8592 104.724 5.6583 107.368 3.0329C109.119 1.2971 111.26 0.3142 113.723 0.0653C113.792 0.0591 113.86 0.0218 113.928 0C114.498 0.0062 115.07 0.00619984 115.642 0.00619984ZM120.99 8.8623C120.728 5.96 117.291 3.3782 114.087 3.6675C111.309 3.9163 108.264 6.7066 108.435 8.8623H120.99ZM99.442 0.00619984C100.201 0.2457 100.807 0.6626 101.022 1.4776C101.087 1.7264 101.115 1.9908 101.115 2.249C101.121 7.786 101.121 13.323 101.118 18.86C101.118 20.0949 100.506 20.8819 99.407 21.0934C98.269 21.3143 97.124 20.4309 97.05 19.2737C97.04 19.1244 97.04 18.9751 97.04 18.8258V4.6038V4.1341H88.803V12.9995C88.803 17.0869 85.969 20.4122 81.932 21.0375C81.456 21.1121 80.958 21.1526 80.485 21.0903C79.397 20.9472 78.662 20.0234 78.734 18.9875C78.812 17.8552 79.642 17.0651 80.784 17.0402C82.65 16.9967 84.156 15.8178 84.607 14.0198C84.688 13.6994 84.725 13.3572 84.725 13.0244C84.734 9.4409 84.731 5.8574 84.731 2.2739C84.731 1.0856 85.195 0.4479 86.327 0.0591002C86.346 0.0529002 86.358 0.0248998 86.374 0.00619984H99.442ZM11.6463 0.00829983C12.2747 0.1327 12.9093 0.226 13.5252 0.3878C15.3791 0.8793 16.9843 1.8156 18.3218 3.1936C19.0902 3.9837 19.0808 5.2155 18.3405 6.0368C17.6593 6.7927 16.4212 6.9077 15.5907 6.2825C15.3232 6.0803 15.0992 5.8252 14.8348 5.6199C12.8564 4.0895 10.6634 3.7193 8.3459 4.6245C6.0254 5.5297 4.6225 7.2873 4.2585 9.7571C3.7141 13.4402 6.156 16.7032 9.8422 17.2227C11.9325 17.5182 13.774 16.8837 15.3045 15.4154C16.3994 14.3671 18.0917 14.6378 18.7076 15.9691C19.0684 16.7499 18.9191 17.6644 18.3001 18.2772C15.9204 20.6227 13.0555 21.6803 9.7302 21.3661C5.1139 20.9306 1.4434 17.7484 0.3484 13.2877C0.2053 12.6998 0.1586 12.087 0.0653 11.4867C0.0498 11.3933 0.0218 11.3 0 11.2067V10.2362C0.0467 9.9095 0.0963994 9.5798 0.139999 9.2532C0.687499 5.0196 3.8479 1.4268 7.9664 0.3816C8.5886 0.2229 9.2231 0.1327 9.8546 0.00829983H11.6463ZM2.9117 28.3755C2.8557 28.3506 2.8028 28.3195 2.7437 28.3039C1.7483 28.0209 1.1977 27.1997 1.3315 26.1949C1.4528 25.2648 2.2305 24.5898 3.2228 24.5805C4.4919 24.5711 5.7611 24.5774 7.0271 24.5774C10.4457 24.5774 13.8675 24.5743 17.2861 24.5774C18.1042 24.5774 18.7388 24.9226 19.0841 25.6754C19.42 26.4064 19.336 27.1374 18.7761 27.716C18.493 28.0115 18.0576 28.1609 17.6905 28.3755H2.9117ZM47.8423 4.1776C46.3398 4.1776 44.884 4.1807 43.4314 4.1745C43.2323 4.1745 43.0332 4.1589 42.8403 4.1247C41.7858 3.935 41.0828 3.008 41.1792 1.9442C41.2757 0.8803 42.1311 0.0902004 43.2012 0.0902004C47.6556 0.0871004 52.107 0.0871004 56.5615 0.0902004C57.7373 0.0902004 58.6363 0.9736 58.6394 2.1215C58.6425 3.2631 57.7498 4.1621 56.5708 4.1714C55.1648 4.1838 53.7588 4.1745 52.3528 4.1745H51.8924V19.0746C51.8924 19.9487 51.4818 20.5771 50.6979 20.9317C49.9109 21.2894 49.1612 21.1525 48.5111 20.5957C48.032 20.1851 47.833 19.6407 47.8361 19.0062C47.8423 14.2282 47.8392 9.4533 47.8392 4.6753C47.8423 4.5322 47.8423 4.3829 47.8423 4.1776Z" fill="#3A913F"/>
</svg>
